# xmcd CD database file
#
# Track frame offsets:
#	150
#	16749
#	34342
#	50423
#	69618
#	84102
#	100328
#	122655
#	137963
#	154070
#	169796
#	191271
#	210165
#	227737
#	247095
#	265614
#
# Disc length: 3760 seconds
#
# Revision: 0
# Processed by: cddbd v1.5.2PL0 Copyright (c) Steve Scherf et al.
# Submitted via: CDex 1.70beta2
#
DISCID=cd0eae10
DTITLE=McVeigh, Dan - Cdn. - ON - Drove
DYEAR=2005
DGENRE=Country
TTITLE0=Drove
TTITLE1=You Are All I Dream Of
TTITLE2=Survivors of the Same Broken Heart
TTITLE3=I Can't Handle Alone
TTITLE4=Newsflash
TTITLE5=Hey Jeannie
TTITLE6=That's All She Wrote
TTITLE7=Your Hearts In the Right Place
TTITLE8=Something's Gotta Give
TTITLE9=A Different Blie
TTITLE10=One Margarita At A Time
TTITLE11=A Little Too Lonely
TTITLE12=Blaze A Trail
TTITLE13=She's All She's Got
TTITLE14=Sometime We Forgey
TTITLE15=If You're Gonna Get To Heaven
EXTD=YEAR: 2005
EXTT0=
EXTT1=
EXTT2=
EXTT3=
EXTT4=
EXTT5=
EXTT6=
EXTT7=
EXTT8=
EXTT9=
EXTT10=
EXTT11=
EXTT12=
EXTT13=
EXTT14=
EXTT15=
PLAYORDER=
